<svg width="544" height="209" viewBox="0 0 544 209" fill="none" xmlns="http://www.w3.org/2000/svg">
<mask id="mask0_773_2153" style="mask-type:alpha" maskUnits="userSpaceOnUse" x="0" y="0" width="544" height="209">
<path d="M0 12C0 5.37258 5.37258 0 12 0H532C538.627 0 544 5.37258 544 12V197C544 203.627 538.627 209 532 209H12C5.37259 209 0 203.627 0 197V12Z" fill="#20293A"/>
</mask>
<g mask="url(#mask0_773_2153)">
<path d="M543.603 0C547.294 44.1038 490.657 130.404 374.841 159.328C310.011 175.519 216.218 167.546 148.975 174.747C67.8162 183.438 17.4337 206.871 0 225.287" stroke="#364153" stroke-opacity="0.5"/>
<path d="M549.37 8.56592C553.061 52.6697 496.424 138.97 380.608 167.894C315.778 184.085 221.984 176.112 154.742 183.313C73.5828 192.004 23.2003 215.437 5.7666 233.853" stroke="#364153" stroke-opacity="0.5"/>
<path d="M555.137 17.1321C558.828 61.2358 502.191 147.536 386.375 176.46C321.545 192.651 227.751 184.678 160.509 191.879C79.3499 200.57 28.9674 224.003 11.5337 242.419" stroke="#364153" stroke-opacity="0.5"/>
<path d="M560.903 25.698C564.594 69.8018 507.958 156.102 392.141 185.026C327.312 201.217 233.518 193.244 166.276 200.445C85.1165 209.136 34.734 232.569 17.3003 250.985" stroke="#364153" stroke-opacity="0.5"/>
<path d="M566.67 34.2642C570.361 78.3679 513.725 164.668 397.908 193.592C333.079 209.783 239.285 201.811 172.043 209.011C90.8836 217.702 40.5011 241.135 23.0674 259.551" stroke="#364153" stroke-opacity="0.5"/>
<path d="M572.437 42.8301C576.128 86.9338 519.491 173.234 403.675 202.158C338.845 218.349 245.052 210.376 177.809 217.577C96.6502 226.268 46.2677 249.701 28.834 268.117" stroke="#364153" stroke-opacity="0.5"/>
<path d="M578.203 51.3962C581.895 95.5 525.258 181.8 409.442 210.725C344.612 226.915 250.818 218.943 183.576 226.143C102.417 234.835 52.0343 258.267 34.6006 276.683" stroke="#364153" stroke-opacity="0.5"/>
<path d="M583.971 59.9622C587.662 104.066 531.025 190.366 415.209 219.29C350.379 235.481 256.585 227.508 189.343 234.709C108.184 243.4 57.8013 266.833 40.3677 285.249" stroke="#364153" stroke-opacity="0.5"/>
<path d="M589.737 68.5283C593.428 112.632 536.792 198.932 420.975 227.857C356.146 244.047 262.352 236.075 195.11 243.275C113.95 251.967 63.568 275.399 46.1343 293.815" stroke="#364153" stroke-opacity="0.5"/>
<path d="M595.504 77.0942C599.195 121.198 542.559 207.498 426.742 236.423C361.913 252.613 268.119 244.641 200.877 251.841C119.718 260.533 69.335 283.965 51.9014 302.381" stroke="#364153" stroke-opacity="0.5"/>
<path d="M602.232 85.6604C605.923 129.764 549.286 216.064 433.47 244.989C368.64 261.18 274.847 253.207 207.604 260.408C126.445 269.099 76.0626 292.531 58.6289 310.947" stroke="#364153" stroke-opacity="0.5"/>
<path d="M608.96 94.2263C612.651 138.33 556.014 224.63 440.198 253.555C375.368 269.745 281.575 261.773 214.332 268.973C133.173 277.665 82.7906 301.097 65.3569 319.513" stroke="#364153" stroke-opacity="0.5"/>
</g>
</svg>
