<svg width="24" height="24" viewBox="0 0 24 24" fill="none" xmlns="http://www.w3.org/2000/svg">
<path d="M3 15.2L2.29289 14.4928L1.58579 15.2L2.29289 15.9071L3 15.2ZM9.8 15.2L9.8 16.2L9.8 15.2ZM14.8 11.2C14.8 10.6477 14.3523 10.2 13.8 10.2C13.2477 10.2 12.8 10.6477 12.8 11.2L14.8 11.2ZM6.29289 10.4928L2.29289 14.4928L3.70711 15.9071L7.70711 11.9071L6.29289 10.4928ZM2.29289 15.9071L6.29289 19.9071L7.70711 18.4928L3.70711 14.4928L2.29289 15.9071ZM3 16.2L9.8 16.2L9.8 14.2L3 14.2L3 16.2ZM9.8 16.2C12.5614 16.2 14.8 13.9614 14.8 11.2L12.8 11.2C12.8 12.8568 11.4569 14.2 9.8 14.2L9.8 16.2Z" fill="#4A5567"/>
<path d="M21.5 8.80004L22.2071 9.50714L22.9142 8.80004L22.2071 8.09293L21.5 8.80004ZM14.2 8.80004L14.2 9.80004L14.2 9.80004L14.2 8.80004ZM9.20001 12.8C9.20001 13.3523 9.64773 13.8 10.2 13.8C10.7523 13.8 11.2 13.3523 11.2 12.8L9.20001 12.8ZM18.2071 13.5071L22.2071 9.50714L20.7929 8.09293L16.7929 12.0929L18.2071 13.5071ZM22.2071 8.09293L18.2071 4.09293L16.7929 5.50714L20.7929 9.50714L22.2071 8.09293ZM21.5 7.80004L14.2 7.80004L14.2 9.80004L21.5 9.80004L21.5 7.80004ZM14.2 7.80004C11.4386 7.80005 9.20001 10.0386 9.20001 12.8L11.2 12.8C11.2 11.1432 12.5432 9.80005 14.2 9.80004L14.2 7.80004Z" fill="#4A5567"/>
</svg>
